<svg width="662" height="366" viewBox="0 0 662 366" fill="none" xmlns="http://www.w3.org/2000/svg">
<g clip-path="url(#clip0_3_42)">
<path d="M421.296 313.603H56.8039C54.6704 313.601 52.625 312.752 51.1164 311.244C49.6078 309.736 48.7592 307.692 48.7567 305.559V93.4549C48.7591 91.3222 49.6077 89.2776 51.1163 87.7696C52.625 86.2616 54.6704 85.4134 56.8039 85.411H421.296C423.429 85.4135 425.475 86.2617 426.983 87.7697C428.492 89.2777 429.341 91.3223 429.343 93.4549V305.559C429.341 307.692 428.492 309.736 426.983 311.244C425.475 312.752 423.429 313.601 421.296 313.603Z" fill="#E6E6E6"/>
<path d="M444.017 343.288H34.0824V72.1623C34.0851 69.7788 35.0335 67.4937 36.7196 65.8082C38.4057 64.1228 40.6918 63.1748 43.0763 63.1721H435.024C437.408 63.1748 439.694 64.1228 441.38 65.8082C443.066 67.4937 444.015 69.7788 444.017 72.1623V343.288ZM35.9758 341.395H442.124V72.1623C442.122 70.2805 441.373 68.4765 440.042 67.1459C438.711 65.8153 436.906 65.0668 435.024 65.0648H43.0763C41.1938 65.0668 39.3889 65.8153 38.0578 67.1459C36.7266 68.4765 35.9779 70.2805 35.9758 72.1623V341.395Z" fill="#CCCCCC"/>
<path d="M239.05 78.7867C241.141 78.7867 242.837 77.0919 242.837 75.0013C242.837 72.9107 241.141 71.216 239.05 71.216C236.958 71.216 235.263 72.9107 235.263 75.0013C235.263 77.0919 236.958 78.7867 239.05 78.7867Z" fill="#E6E6E6"/>
<path d="M330.41 268.59H147.69C145.557 268.588 143.511 267.739 142.003 266.231C140.494 264.723 139.645 262.679 139.643 260.546V138.469C139.645 136.336 140.494 134.292 142.003 132.784C143.511 131.276 145.557 130.427 147.69 130.425H330.41C332.543 130.427 334.588 131.276 336.097 132.784C337.606 134.292 338.454 136.336 338.457 138.469V260.546C338.454 262.679 337.606 264.723 336.097 266.231C334.588 267.739 332.543 268.588 330.41 268.59Z" fill="white"/>
<path d="M177.749 182.473C176.251 182.473 174.787 182.029 173.541 181.197C172.296 180.365 171.325 179.183 170.752 177.799C170.178 176.416 170.028 174.894 170.321 173.425C170.613 171.957 171.334 170.608 172.393 169.549C173.453 168.49 174.802 167.769 176.271 167.477C177.741 167.185 179.263 167.335 180.647 167.908C182.031 168.481 183.214 169.451 184.046 170.696C184.879 171.941 185.323 173.405 185.323 174.902C185.321 176.909 184.522 178.834 183.102 180.253C181.682 181.672 179.757 182.471 177.749 182.473Z" fill="#CCCCCC"/>
<path d="M177.749 207.078C176.251 207.078 174.787 206.634 173.541 205.802C172.296 204.97 171.325 203.788 170.752 202.404C170.178 201.021 170.028 199.499 170.321 198.03C170.613 196.561 171.334 195.212 172.393 194.154C173.453 193.095 174.802 192.374 176.271 192.082C177.741 191.79 179.263 191.94 180.647 192.513C182.031 193.086 183.214 194.056 184.046 195.301C184.879 196.546 185.323 198.01 185.323 199.507C185.321 201.514 184.522 203.438 183.102 204.858C181.682 206.277 179.757 207.075 177.749 207.078Z" fill="#FFA500"/>
<path d="M177.749 231.682C176.251 231.682 174.787 231.238 173.541 230.407C172.296 229.575 171.325 228.392 170.752 227.009C170.178 225.626 170.028 224.103 170.321 222.635C170.613 221.166 171.334 219.817 172.393 218.758C173.453 217.7 174.802 216.979 176.271 216.687C177.741 216.394 179.263 216.544 180.647 217.117C182.031 217.69 183.214 218.661 184.046 219.906C184.879 221.151 185.323 222.614 185.323 224.112C185.321 226.119 184.522 228.043 183.102 229.463C181.682 230.882 179.757 231.68 177.749 231.682Z" fill="#FFA500"/>
<path d="M213.725 168.751C212.093 168.751 210.528 169.399 209.373 170.553C208.219 171.706 207.571 173.271 207.571 174.902C207.571 176.534 208.219 178.098 209.373 179.252C210.528 180.405 212.093 181.053 213.725 181.053H301.771C303.403 181.053 304.968 180.405 306.122 179.252C307.276 178.098 307.925 176.534 307.925 174.902C307.925 173.271 307.276 171.706 306.122 170.553C304.968 169.399 303.403 168.751 301.771 168.751H213.725Z" fill="#CCCCCC"/>
<path d="M213.725 193.356C212.093 193.356 210.528 194.004 209.373 195.157C208.219 196.311 207.571 197.876 207.571 199.507C207.571 201.138 208.219 202.703 209.373 203.857C210.528 205.01 212.093 205.658 213.725 205.658H301.771C303.403 205.658 304.968 205.01 306.122 203.857C307.276 202.703 307.925 201.138 307.925 199.507C307.925 197.876 307.276 196.311 306.122 195.157C304.968 194.004 303.403 193.356 301.771 193.356H213.725Z" fill="#FFA500"/>
<path d="M213.725 217.961C212.093 217.961 210.528 218.609 209.373 219.762C208.219 220.916 207.571 222.48 207.571 224.112C207.571 225.743 208.219 227.308 209.373 228.461C210.528 229.615 212.093 230.263 213.725 230.263H301.771C303.403 230.263 304.968 229.615 306.122 228.461C307.276 227.308 307.925 225.743 307.925 224.112C307.925 222.48 307.276 220.916 306.122 219.762C304.968 218.609 303.403 217.961 301.771 217.961H213.725Z" fill="#FFA500"/>
<path d="M627.956 355.187L616.351 354.992L611.581 310.155L628.709 310.443L627.956 355.187Z" fill="#FFB8B8"/>
<path d="M608.118 351.538L630.499 351.914L630.262 366L593.789 365.387C593.82 363.538 594.215 361.712 594.952 360.015C595.689 358.318 596.753 356.782 598.084 355.496C599.414 354.21 600.985 353.199 602.707 352.52C604.429 351.841 606.267 351.507 608.118 351.538Z" fill="#005EB8"/>
<path d="M512.789 355.081L502.03 350.728L513.708 307.175L529.587 313.601L512.789 355.081Z" fill="#FFB8B8"/>
<path d="M495.59 344.546L516.339 352.941L511.05 366L477.237 352.318C478.64 348.855 481.361 346.09 484.803 344.633C488.245 343.175 492.125 343.144 495.59 344.546Z" fill="#005EB8"/>
<path d="M551.58 187.304L517.498 277.206L503.297 339.665L518.444 347.235L587.556 212.855L613.118 347.708H628.265C628.265 347.708 635.192 187.764 625.101 175.232L551.58 187.304Z" fill="#005EB8"/>
<path d="M509.327 285.735C524.057 285.735 535.998 273.799 535.998 259.075C535.998 244.351 524.057 232.415 509.327 232.415C494.597 232.415 482.656 244.351 482.656 259.075C482.656 273.799 494.597 285.735 509.327 285.735Z" fill="#FFA500"/>
<path d="M507.104 270.863L498.639 259.983L503.562 256.156L507.57 261.307L521.11 247.021L525.638 251.308L507.104 270.863Z" fill="white"/>
<path d="M568.148 62.8609C585.402 62.8609 599.39 48.8792 599.39 31.6318C599.39 14.3844 585.402 0.402679 568.148 0.402679C550.893 0.402679 536.906 14.3844 536.906 31.6318C536.906 48.8792 550.893 62.8609 568.148 62.8609Z" fill="#005EB8"/>
<path d="M524.547 244.14C525.878 243.478 527.048 242.532 527.974 241.369C528.9 240.206 529.559 238.854 529.906 237.409C530.253 235.964 530.278 234.46 529.981 233.004C529.683 231.548 529.07 230.175 528.184 228.981L551.884 97.8755L529.768 97.5841L513.31 227.231C511.402 228.851 510.156 231.115 509.807 233.592C509.457 236.07 510.03 238.59 511.415 240.674C512.8 242.759 514.902 244.263 517.322 244.901C519.743 245.54 522.313 245.269 524.547 244.14Z" fill="#FFB8B8"/>
<path d="M660.355 218.532C661.19 217.26 661.729 215.817 661.932 214.309C662.135 212.8 661.996 211.266 661.527 209.818C661.058 208.371 660.269 207.047 659.22 205.944C658.17 204.842 656.887 203.989 655.464 203.448L613.144 100.695C612.108 98.1801 610.537 95.9212 608.539 94.0751C606.541 92.2291 604.165 90.8403 601.576 90.0053C598.987 89.1704 596.247 88.9093 593.546 89.2404C590.846 89.5714 588.25 90.4866 585.939 91.9222L641.992 209.988C641.269 212.346 641.424 214.886 642.428 217.139C643.432 219.392 645.217 221.206 647.454 222.247C649.691 223.288 652.229 223.485 654.6 222.802C656.971 222.12 659.015 220.603 660.355 218.532Z" fill="#FFB8B8"/>
<path d="M568.767 66.6407C581.609 66.6407 592.019 56.2344 592.019 43.3977C592.019 30.5609 581.609 20.1547 568.767 20.1547C555.924 20.1547 545.514 30.5609 545.514 43.3977C545.514 56.2344 555.924 66.6407 568.767 66.6407Z" fill="#FFB8B8"/>
<path d="M540.492 80.1479C553.903 74.5669 577.058 69.051 602.768 81.0731C605.777 82.4752 608.455 84.4973 610.627 87.0069C612.799 89.5164 614.415 92.4566 615.37 95.6346L626.372 132.417L612.171 146.612L625.425 175.948C625.425 175.948 574.775 206.704 552.053 187.777L538.326 139.041L520.338 134.309L526.474 97.8652C527.122 93.9683 528.747 90.2992 531.199 87.2008C533.65 84.1023 536.847 81.6758 540.492 80.1479Z" fill="#CCCCCC"/>
<path d="M547.018 26.2092C556.099 31.7503 566.337 35.1221 576.934 36.0624L573.781 32.2856C576.077 33.1341 578.493 33.6137 580.939 33.7064C582.164 33.7419 583.38 33.4899 584.49 32.9707C585.599 32.4515 586.572 31.6796 587.329 30.7168C587.948 29.717 588.315 28.5825 588.4 27.4101C588.485 26.2376 588.285 25.0621 587.817 23.9836C586.856 21.8325 585.361 19.963 583.472 18.553C580.126 15.9066 576.176 14.129 571.975 13.3786C567.774 12.6282 563.453 12.9282 559.396 14.252C556.614 15.0833 554.122 16.6812 552.206 18.8627C551.264 19.9617 550.609 21.2772 550.302 22.6912C549.994 24.1052 550.042 25.5734 550.442 26.9642" fill="#005EB8"/>
<path d="M542.669 5.52753C542.291 1.55292 537.42 -0.894018 533.611 0.306591C529.801 1.5072 527.3 5.34121 526.544 9.26159C526.181 10.9126 526.146 12.6192 526.444 14.2835C526.741 15.9478 527.364 17.537 528.277 18.9601C529.221 20.3651 530.549 21.4697 532.103 22.1425C533.656 22.8153 535.371 23.0281 537.042 22.7555C540.809 21.9528 543.419 18.2756 544.166 14.4982C544.913 10.7208 544.171 6.82631 543.431 3.04764" fill="#005EB8"/>
<path d="M607.047 7.42022C606.669 3.4456 601.798 0.998667 597.989 2.19928C594.179 3.39988 591.678 7.23389 590.922 11.1543C590.558 12.8053 590.524 14.5119 590.822 16.1762C591.119 17.8404 591.742 19.4297 592.655 20.8528C593.599 22.2578 594.927 23.3624 596.481 24.0352C598.034 24.708 599.748 24.9208 601.42 24.6482C605.187 23.8455 607.797 20.1683 608.544 16.3909C609.291 12.6135 608.549 8.71899 607.809 4.94033" fill="#005EB8"/>
<path d="M451.118 330.986H434.55V328.147C434.55 327.143 434.151 326.18 433.441 325.47C432.731 324.76 431.768 324.361 430.763 324.361H410.882C409.878 324.361 408.914 324.76 408.204 325.47C407.494 326.18 407.095 327.143 407.095 328.147V330.986H404.255V328.147C404.255 327.143 403.856 326.18 403.146 325.47C402.435 324.76 401.472 324.361 400.468 324.361H380.586C379.582 324.361 378.619 324.76 377.909 325.47C377.198 326.18 376.799 327.143 376.799 328.147V330.986H373.959V328.147C373.959 327.143 373.56 326.18 372.85 325.47C372.14 324.76 371.177 324.361 370.172 324.361H350.291C349.287 324.361 348.323 324.76 347.613 325.47C346.903 326.18 346.504 327.143 346.504 328.147V330.986H343.664V328.147C343.664 327.143 343.265 326.18 342.555 325.47C341.845 324.76 340.881 324.361 339.877 324.361H319.996C318.991 324.361 318.028 324.76 317.318 325.47C316.608 326.18 316.209 327.143 316.209 328.147V330.986H313.368V328.147C313.368 327.143 312.969 326.18 312.259 325.47C311.549 324.76 310.586 324.361 309.581 324.361H289.7C288.696 324.361 287.733 324.76 287.022 325.47C286.312 326.18 285.913 327.143 285.913 328.147V330.986H283.073V328.147C283.073 327.143 282.674 326.18 281.964 325.47C281.254 324.76 280.29 324.361 279.286 324.361H259.405C258.4 324.361 257.437 324.76 256.727 325.47C256.017 326.18 255.618 327.143 255.618 328.147V330.986H252.778V328.147C252.778 327.143 252.379 326.18 251.668 325.47C250.958 324.76 249.995 324.361 248.991 324.361H229.109C228.105 324.361 227.142 324.76 226.431 325.47C225.721 326.18 225.322 327.143 225.322 328.147V330.986H222.482V328.147C222.482 327.143 222.083 326.18 221.373 325.47C220.663 324.76 219.7 324.361 218.695 324.361H198.814C197.809 324.361 196.846 324.76 196.136 325.47C195.426 326.18 195.027 327.143 195.027 328.147V330.986H192.187V328.147C192.187 327.143 191.788 326.18 191.078 325.47C190.367 324.76 189.404 324.361 188.4 324.361H168.518C167.514 324.361 166.551 324.76 165.841 325.47C165.13 326.18 164.731 327.143 164.731 328.147V330.986H161.891V328.147C161.891 327.143 161.492 326.18 160.782 325.47C160.072 324.76 159.109 324.361 158.104 324.361H138.223C137.219 324.361 136.255 324.76 135.545 325.47C134.835 326.18 134.436 327.143 134.436 328.147V330.986H131.596V328.147C131.596 327.143 131.197 326.18 130.487 325.47C129.776 324.76 128.813 324.361 127.809 324.361H107.927C106.923 324.361 105.96 324.76 105.25 325.47C104.54 326.18 104.141 327.143 104.141 328.147V330.986H101.3V328.147C101.3 327.143 100.901 326.18 100.191 325.47C99.481 324.76 98.5178 324.361 97.5134 324.361H77.6321C76.6277 324.361 75.6645 324.76 74.9543 325.47C74.2441 326.18 73.8451 327.143 73.8451 328.147V330.986H71.0049V328.147C71.0049 327.143 70.606 326.18 69.8958 325.47C69.1856 324.76 68.2224 324.361 67.218 324.361H47.3366C46.3323 324.361 45.369 324.76 44.6589 325.47C43.9487 326.18 43.5497 327.143 43.5497 328.147V330.986H26.9818C19.8258 330.986 12.9629 333.827 7.90279 338.885C2.84272 343.943 0 350.803 0 357.956C0 360.089 0.847831 362.136 2.35698 363.644C3.86613 365.153 5.91297 366 8.04723 366H470.053C472.187 366 474.234 365.153 475.743 363.644C477.252 362.136 478.1 360.09 478.1 357.956C478.1 350.803 475.257 343.943 470.197 338.885C465.137 333.827 458.274 330.986 451.118 330.986Z" fill="#005EB8"/>
</g>
<defs>
<clipPath id="clip0_3_42">
<rect width="662" height="366" fill="white"/>
</clipPath>
</defs>
</svg>
